<mxfile host="app.diagrams.net" modified="2024-04-02T07:49:01.197Z" agent="Mozilla/5.0 (Windows NT 10.0; Win64; x64) AppleWebKit/537.36 (KHTML, like Gecko) Chrome/122.0.0.0 Safari/537.36 OPR/108.0.0.0" version="24.2.0" etag="lT9qhbIfkxYX3bbfO5mV" type="github">
  <diagram name="Page-1" id="MIFWBq5Yj73wHo5m0kPA">
    <mxGraphModel>
      <root>
        <mxCell id="0" />
        <mxCell id="1" parent="0" />
      </root>
    </mxGraphModel>
  </diagram>
</mxfile>
